<mxfile host="Electron" modified="2024-03-27T09:11:45.564Z" agent="Mozilla/5.0 (Windows NT 10.0; Win64; x64) AppleWebKit/537.36 (KHTML, like Gecko) draw.io/21.4.0 Chrome/112.0.5615.204 Electron/24.5.1 Safari/537.36" etag="-N6ZaO-_nWsA0O1BTqkt" version="21.4.0" type="device">
  <diagram name="Page-1" id="hEe13QOGEc_TrbHQA4Oi">
    <mxGraphModel dx="1457" dy="1190" grid="0" gridSize="10" guides="1" tooltips="1" connect="1" arrows="1" fold="1" page="0" pageScale="1" pageWidth="827" pageHeight="1169" math="0" shadow="0">
      <root>
        <mxCell id="0" />
        <mxCell id="1" parent="0" />
        <mxCell id="b5HULVO_B9-mvFHrGQGt-9" value="&amp;lt;&amp;lt;Public &amp;gt;&amp;gt;&lt;br&gt;&lt;b&gt;INTERFACE&lt;/b&gt;&lt;br&gt;{DOCKER}" style="swimlane;fontStyle=0;align=center;verticalAlign=top;childLayout=stackLayout;horizontal=1;startSize=55;horizontalStack=0;resizeParent=1;resizeParentMax=0;resizeLast=0;collapsible=0;marginBottom=0;html=1;whiteSpace=wrap;fillColor=#6a00ff;fontColor=#ffffff;strokeColor=#3700CC;" vertex="1" parent="1">
          <mxGeometry x="-276" y="-440" width="319" height="283" as="geometry" />
        </mxCell>
        <mxCell id="b5HULVO_B9-mvFHrGQGt-10" value="attributes" style="text;html=1;strokeColor=none;fillColor=none;align=center;verticalAlign=middle;spacingLeft=4;spacingRight=4;overflow=hidden;rotatable=0;points=[[0,0.5],[1,0.5]];portConstraint=eastwest;whiteSpace=wrap;" vertex="1" parent="b5HULVO_B9-mvFHrGQGt-9">
          <mxGeometry y="55" width="319" height="20" as="geometry" />
        </mxCell>
        <mxCell id="b5HULVO_B9-mvFHrGQGt-11" value="attribute1" style="text;html=1;strokeColor=none;fillColor=none;align=left;verticalAlign=middle;spacingLeft=4;spacingRight=4;overflow=hidden;rotatable=0;points=[[0,0.5],[1,0.5]];portConstraint=eastwest;whiteSpace=wrap;" vertex="1" parent="b5HULVO_B9-mvFHrGQGt-9">
          <mxGeometry y="75" width="319" height="20" as="geometry" />
        </mxCell>
        <mxCell id="b5HULVO_B9-mvFHrGQGt-12" value="inherited attribute2" style="text;html=1;strokeColor=none;fillColor=none;align=left;verticalAlign=middle;spacingLeft=4;spacingRight=4;overflow=hidden;rotatable=0;points=[[0,0.5],[1,0.5]];portConstraint=eastwest;fontColor=#808080;whiteSpace=wrap;" vertex="1" parent="b5HULVO_B9-mvFHrGQGt-9">
          <mxGeometry y="95" width="319" height="20" as="geometry" />
        </mxCell>
        <mxCell id="b5HULVO_B9-mvFHrGQGt-13" value="..." style="text;html=1;strokeColor=none;fillColor=none;align=left;verticalAlign=middle;spacingLeft=4;spacingRight=4;overflow=hidden;rotatable=0;points=[[0,0.5],[1,0.5]];portConstraint=eastwest;whiteSpace=wrap;" vertex="1" parent="b5HULVO_B9-mvFHrGQGt-9">
          <mxGeometry y="115" width="319" height="20" as="geometry" />
        </mxCell>
        <mxCell id="b5HULVO_B9-mvFHrGQGt-14" value="" style="line;strokeWidth=1;fillColor=none;align=left;verticalAlign=middle;spacingTop=-1;spacingLeft=3;spacingRight=3;rotatable=0;labelPosition=right;points=[];portConstraint=eastwest;" vertex="1" parent="b5HULVO_B9-mvFHrGQGt-9">
          <mxGeometry y="135" width="319" height="8" as="geometry" />
        </mxCell>
        <mxCell id="b5HULVO_B9-mvFHrGQGt-15" value="operations" style="text;html=1;strokeColor=none;fillColor=none;align=center;verticalAlign=middle;spacingLeft=4;spacingRight=4;overflow=hidden;rotatable=0;points=[[0,0.5],[1,0.5]];portConstraint=eastwest;whiteSpace=wrap;" vertex="1" parent="b5HULVO_B9-mvFHrGQGt-9">
          <mxGeometry y="143" width="319" height="20" as="geometry" />
        </mxCell>
        <mxCell id="b5HULVO_B9-mvFHrGQGt-16" value="void Detect_Floating()" style="text;html=1;strokeColor=none;fillColor=none;align=left;verticalAlign=middle;spacingLeft=4;spacingRight=4;overflow=hidden;rotatable=0;points=[[0,0.5],[1,0.5]];portConstraint=eastwest;whiteSpace=wrap;" vertex="1" parent="b5HULVO_B9-mvFHrGQGt-9">
          <mxGeometry y="163" width="319" height="20" as="geometry" />
        </mxCell>
        <mxCell id="b5HULVO_B9-mvFHrGQGt-17" value="void Detect_" style="text;html=1;strokeColor=none;fillColor=none;align=left;verticalAlign=middle;spacingLeft=4;spacingRight=4;overflow=hidden;rotatable=0;points=[[0,0.5],[1,0.5]];portConstraint=eastwest;whiteSpace=wrap;" vertex="1" parent="b5HULVO_B9-mvFHrGQGt-9">
          <mxGeometry y="183" width="319" height="20" as="geometry" />
        </mxCell>
        <mxCell id="b5HULVO_B9-mvFHrGQGt-18" value="void Plot_Dock_Indicator" style="text;html=1;strokeColor=none;fillColor=none;align=left;verticalAlign=middle;spacingLeft=4;spacingRight=4;overflow=hidden;rotatable=0;points=[[0,0.5],[1,0.5]];portConstraint=eastwest;whiteSpace=wrap;" vertex="1" parent="b5HULVO_B9-mvFHrGQGt-9">
          <mxGeometry y="203" width="319" height="20" as="geometry" />
        </mxCell>
        <mxCell id="b5HULVO_B9-mvFHrGQGt-19" value="void Persist_to_File" style="text;html=1;strokeColor=none;fillColor=none;align=left;verticalAlign=middle;spacingLeft=4;spacingRight=4;overflow=hidden;rotatable=0;points=[[0,0.5],[1,0.5]];portConstraint=eastwest;whiteSpace=wrap;" vertex="1" parent="b5HULVO_B9-mvFHrGQGt-9">
          <mxGeometry y="223" width="319" height="20" as="geometry" />
        </mxCell>
        <mxCell id="b5HULVO_B9-mvFHrGQGt-20" value="void Read_Persistence_from_File" style="text;html=1;strokeColor=none;fillColor=none;align=left;verticalAlign=middle;spacingLeft=4;spacingRight=4;overflow=hidden;rotatable=0;points=[[0,0.5],[1,0.5]];portConstraint=eastwest;whiteSpace=wrap;" vertex="1" parent="b5HULVO_B9-mvFHrGQGt-9">
          <mxGeometry y="243" width="319" height="20" as="geometry" />
        </mxCell>
        <mxCell id="b5HULVO_B9-mvFHrGQGt-21" value="void Set_Persistence_File_Location" style="text;html=1;strokeColor=none;fillColor=none;align=left;verticalAlign=middle;spacingLeft=4;spacingRight=4;overflow=hidden;rotatable=0;points=[[0,0.5],[1,0.5]];portConstraint=eastwest;whiteSpace=wrap;" vertex="1" parent="b5HULVO_B9-mvFHrGQGt-9">
          <mxGeometry y="263" width="319" height="20" as="geometry" />
        </mxCell>
        <mxCell id="b5HULVO_B9-mvFHrGQGt-44" value="public&lt;br&gt;&lt;b&gt;Class&lt;/b&gt;&lt;br&gt;&lt;span style=&quot;font-size: 17px;&quot;&gt;Docking Container&lt;/span&gt;" style="swimlane;fontStyle=0;align=center;verticalAlign=top;childLayout=stackLayout;horizontal=1;startSize=55;horizontalStack=0;resizeParent=1;resizeParentMax=0;resizeLast=0;collapsible=0;marginBottom=0;html=1;whiteSpace=wrap;fillColor=#60a917;fontColor=#ffffff;strokeColor=#2D7600;" vertex="1" parent="1">
          <mxGeometry x="125" y="203" width="359" height="243" as="geometry" />
        </mxCell>
        <mxCell id="b5HULVO_B9-mvFHrGQGt-45" value="attributes" style="text;html=1;strokeColor=none;fillColor=none;align=center;verticalAlign=middle;spacingLeft=4;spacingRight=4;overflow=hidden;rotatable=0;points=[[0,0.5],[1,0.5]];portConstraint=eastwest;whiteSpace=wrap;" vertex="1" parent="b5HULVO_B9-mvFHrGQGt-44">
          <mxGeometry y="55" width="359" height="20" as="geometry" />
        </mxCell>
        <mxCell id="b5HULVO_B9-mvFHrGQGt-46" value="bool&amp;nbsp; &amp;nbsp;isFloatable" style="text;html=1;strokeColor=none;fillColor=none;align=left;verticalAlign=middle;spacingLeft=4;spacingRight=4;overflow=hidden;rotatable=0;points=[[0,0.5],[1,0.5]];portConstraint=eastwest;whiteSpace=wrap;" vertex="1" parent="b5HULVO_B9-mvFHrGQGt-44">
          <mxGeometry y="75" width="359" height="20" as="geometry" />
        </mxCell>
        <mxCell id="b5HULVO_B9-mvFHrGQGt-47" value="int&amp;nbsp; &amp;nbsp;Maximum_Windows" style="text;html=1;strokeColor=none;fillColor=none;align=left;verticalAlign=middle;spacingLeft=4;spacingRight=4;overflow=hidden;rotatable=0;points=[[0,0.5],[1,0.5]];portConstraint=eastwest;whiteSpace=wrap;" vertex="1" parent="b5HULVO_B9-mvFHrGQGt-44">
          <mxGeometry y="95" width="359" height="20" as="geometry" />
        </mxCell>
        <mxCell id="b5HULVO_B9-mvFHrGQGt-48" value="attribute1" style="text;html=1;strokeColor=none;fillColor=none;align=left;verticalAlign=middle;spacingLeft=4;spacingRight=4;overflow=hidden;rotatable=0;points=[[0,0.5],[1,0.5]];portConstraint=eastwest;whiteSpace=wrap;" vertex="1" parent="b5HULVO_B9-mvFHrGQGt-44">
          <mxGeometry y="115" width="359" height="20" as="geometry" />
        </mxCell>
        <mxCell id="b5HULVO_B9-mvFHrGQGt-49" value="inherited attribute2" style="text;html=1;strokeColor=none;fillColor=none;align=left;verticalAlign=middle;spacingLeft=4;spacingRight=4;overflow=hidden;rotatable=0;points=[[0,0.5],[1,0.5]];portConstraint=eastwest;fontColor=#808080;whiteSpace=wrap;" vertex="1" parent="b5HULVO_B9-mvFHrGQGt-44">
          <mxGeometry y="135" width="359" height="20" as="geometry" />
        </mxCell>
        <mxCell id="b5HULVO_B9-mvFHrGQGt-50" value="..." style="text;html=1;strokeColor=none;fillColor=none;align=left;verticalAlign=middle;spacingLeft=4;spacingRight=4;overflow=hidden;rotatable=0;points=[[0,0.5],[1,0.5]];portConstraint=eastwest;whiteSpace=wrap;" vertex="1" parent="b5HULVO_B9-mvFHrGQGt-44">
          <mxGeometry y="155" width="359" height="20" as="geometry" />
        </mxCell>
        <mxCell id="b5HULVO_B9-mvFHrGQGt-51" value="" style="line;strokeWidth=1;fillColor=none;align=left;verticalAlign=middle;spacingTop=-1;spacingLeft=3;spacingRight=3;rotatable=0;labelPosition=right;points=[];portConstraint=eastwest;" vertex="1" parent="b5HULVO_B9-mvFHrGQGt-44">
          <mxGeometry y="175" width="359" height="8" as="geometry" />
        </mxCell>
        <mxCell id="b5HULVO_B9-mvFHrGQGt-52" value="operations" style="text;html=1;strokeColor=none;fillColor=none;align=center;verticalAlign=middle;spacingLeft=4;spacingRight=4;overflow=hidden;rotatable=0;points=[[0,0.5],[1,0.5]];portConstraint=eastwest;whiteSpace=wrap;" vertex="1" parent="b5HULVO_B9-mvFHrGQGt-44">
          <mxGeometry y="183" width="359" height="20" as="geometry" />
        </mxCell>
        <mxCell id="b5HULVO_B9-mvFHrGQGt-53" value="void SmartDocking()" style="text;html=1;strokeColor=none;fillColor=none;align=left;verticalAlign=middle;spacingLeft=4;spacingRight=4;overflow=hidden;rotatable=0;points=[[0,0.5],[1,0.5]];portConstraint=eastwest;whiteSpace=wrap;" vertex="1" parent="b5HULVO_B9-mvFHrGQGt-44">
          <mxGeometry y="203" width="359" height="20" as="geometry" />
        </mxCell>
        <mxCell id="b5HULVO_B9-mvFHrGQGt-54" value="operation1" style="text;html=1;strokeColor=none;fillColor=none;align=left;verticalAlign=middle;spacingLeft=4;spacingRight=4;overflow=hidden;rotatable=0;points=[[0,0.5],[1,0.5]];portConstraint=eastwest;whiteSpace=wrap;" vertex="1" parent="b5HULVO_B9-mvFHrGQGt-44">
          <mxGeometry y="223" width="359" height="20" as="geometry" />
        </mxCell>
        <mxCell id="b5HULVO_B9-mvFHrGQGt-66" value="&amp;lt;&amp;lt;Public &amp;gt;&amp;gt;&lt;br&gt;&lt;b&gt;Interface&lt;/b&gt;&lt;br&gt;Dockable&amp;nbsp;" style="swimlane;fontStyle=0;align=center;verticalAlign=top;childLayout=stackLayout;horizontal=1;startSize=55;horizontalStack=0;resizeParent=1;resizeParentMax=0;resizeLast=0;collapsible=0;marginBottom=0;html=1;whiteSpace=wrap;fillColor=#d80073;fontColor=#ffffff;strokeColor=#A50040;" vertex="1" parent="1">
          <mxGeometry x="824" y="-281" width="319" height="283" as="geometry" />
        </mxCell>
        <mxCell id="b5HULVO_B9-mvFHrGQGt-67" value="attributes" style="text;html=1;strokeColor=none;fillColor=none;align=center;verticalAlign=middle;spacingLeft=4;spacingRight=4;overflow=hidden;rotatable=0;points=[[0,0.5],[1,0.5]];portConstraint=eastwest;whiteSpace=wrap;" vertex="1" parent="b5HULVO_B9-mvFHrGQGt-66">
          <mxGeometry y="55" width="319" height="20" as="geometry" />
        </mxCell>
        <mxCell id="b5HULVO_B9-mvFHrGQGt-68" value="attribute1" style="text;html=1;strokeColor=none;fillColor=none;align=left;verticalAlign=middle;spacingLeft=4;spacingRight=4;overflow=hidden;rotatable=0;points=[[0,0.5],[1,0.5]];portConstraint=eastwest;whiteSpace=wrap;" vertex="1" parent="b5HULVO_B9-mvFHrGQGt-66">
          <mxGeometry y="75" width="319" height="20" as="geometry" />
        </mxCell>
        <mxCell id="b5HULVO_B9-mvFHrGQGt-69" value="inherited attribute2" style="text;html=1;strokeColor=none;fillColor=none;align=left;verticalAlign=middle;spacingLeft=4;spacingRight=4;overflow=hidden;rotatable=0;points=[[0,0.5],[1,0.5]];portConstraint=eastwest;fontColor=#808080;whiteSpace=wrap;" vertex="1" parent="b5HULVO_B9-mvFHrGQGt-66">
          <mxGeometry y="95" width="319" height="20" as="geometry" />
        </mxCell>
        <mxCell id="b5HULVO_B9-mvFHrGQGt-70" value="..." style="text;html=1;strokeColor=none;fillColor=none;align=left;verticalAlign=middle;spacingLeft=4;spacingRight=4;overflow=hidden;rotatable=0;points=[[0,0.5],[1,0.5]];portConstraint=eastwest;whiteSpace=wrap;" vertex="1" parent="b5HULVO_B9-mvFHrGQGt-66">
          <mxGeometry y="115" width="319" height="20" as="geometry" />
        </mxCell>
        <mxCell id="b5HULVO_B9-mvFHrGQGt-71" value="" style="line;strokeWidth=1;fillColor=none;align=left;verticalAlign=middle;spacingTop=-1;spacingLeft=3;spacingRight=3;rotatable=0;labelPosition=right;points=[];portConstraint=eastwest;" vertex="1" parent="b5HULVO_B9-mvFHrGQGt-66">
          <mxGeometry y="135" width="319" height="8" as="geometry" />
        </mxCell>
        <mxCell id="b5HULVO_B9-mvFHrGQGt-72" value="operations" style="text;html=1;strokeColor=none;fillColor=none;align=center;verticalAlign=middle;spacingLeft=4;spacingRight=4;overflow=hidden;rotatable=0;points=[[0,0.5],[1,0.5]];portConstraint=eastwest;whiteSpace=wrap;" vertex="1" parent="b5HULVO_B9-mvFHrGQGt-66">
          <mxGeometry y="143" width="319" height="20" as="geometry" />
        </mxCell>
        <mxCell id="b5HULVO_B9-mvFHrGQGt-73" value="void Detect_Floating()" style="text;html=1;strokeColor=none;fillColor=none;align=left;verticalAlign=middle;spacingLeft=4;spacingRight=4;overflow=hidden;rotatable=0;points=[[0,0.5],[1,0.5]];portConstraint=eastwest;whiteSpace=wrap;" vertex="1" parent="b5HULVO_B9-mvFHrGQGt-66">
          <mxGeometry y="163" width="319" height="20" as="geometry" />
        </mxCell>
        <mxCell id="b5HULVO_B9-mvFHrGQGt-74" value="void Detect_" style="text;html=1;strokeColor=none;fillColor=none;align=left;verticalAlign=middle;spacingLeft=4;spacingRight=4;overflow=hidden;rotatable=0;points=[[0,0.5],[1,0.5]];portConstraint=eastwest;whiteSpace=wrap;" vertex="1" parent="b5HULVO_B9-mvFHrGQGt-66">
          <mxGeometry y="183" width="319" height="20" as="geometry" />
        </mxCell>
        <mxCell id="b5HULVO_B9-mvFHrGQGt-75" value="void Plot_Dock_Indicator" style="text;html=1;strokeColor=none;fillColor=none;align=left;verticalAlign=middle;spacingLeft=4;spacingRight=4;overflow=hidden;rotatable=0;points=[[0,0.5],[1,0.5]];portConstraint=eastwest;whiteSpace=wrap;" vertex="1" parent="b5HULVO_B9-mvFHrGQGt-66">
          <mxGeometry y="203" width="319" height="20" as="geometry" />
        </mxCell>
        <mxCell id="b5HULVO_B9-mvFHrGQGt-76" value="void Persist_to_File" style="text;html=1;strokeColor=none;fillColor=none;align=left;verticalAlign=middle;spacingLeft=4;spacingRight=4;overflow=hidden;rotatable=0;points=[[0,0.5],[1,0.5]];portConstraint=eastwest;whiteSpace=wrap;" vertex="1" parent="b5HULVO_B9-mvFHrGQGt-66">
          <mxGeometry y="223" width="319" height="20" as="geometry" />
        </mxCell>
        <mxCell id="b5HULVO_B9-mvFHrGQGt-77" value="void Read_Persistence_from_File" style="text;html=1;strokeColor=none;fillColor=none;align=left;verticalAlign=middle;spacingLeft=4;spacingRight=4;overflow=hidden;rotatable=0;points=[[0,0.5],[1,0.5]];portConstraint=eastwest;whiteSpace=wrap;" vertex="1" parent="b5HULVO_B9-mvFHrGQGt-66">
          <mxGeometry y="243" width="319" height="20" as="geometry" />
        </mxCell>
        <mxCell id="b5HULVO_B9-mvFHrGQGt-78" value="void Set_Persistence_File_Location" style="text;html=1;strokeColor=none;fillColor=none;align=left;verticalAlign=middle;spacingLeft=4;spacingRight=4;overflow=hidden;rotatable=0;points=[[0,0.5],[1,0.5]];portConstraint=eastwest;whiteSpace=wrap;" vertex="1" parent="b5HULVO_B9-mvFHrGQGt-66">
          <mxGeometry y="263" width="319" height="20" as="geometry" />
        </mxCell>
        <mxCell id="b5HULVO_B9-mvFHrGQGt-107" style="edgeStyle=orthogonalEdgeStyle;shape=connector;rounded=0;orthogonalLoop=1;jettySize=auto;html=1;exitX=0.5;exitY=0;exitDx=0;exitDy=0;entryX=0.733;entryY=1;entryDx=0;entryDy=0;entryPerimeter=0;labelBackgroundColor=default;strokeColor=default;fontFamily=Helvetica;fontSize=11;fontColor=default;startArrow=blockThin;startFill=1;endArrow=classic;" edge="1" parent="1" source="b5HULVO_B9-mvFHrGQGt-79" target="b5HULVO_B9-mvFHrGQGt-78">
          <mxGeometry relative="1" as="geometry" />
        </mxCell>
        <mxCell id="b5HULVO_B9-mvFHrGQGt-79" value="&amp;lt;&amp;lt;Public &amp;gt;&amp;gt;&lt;br&gt;&lt;b&gt;Class&lt;/b&gt;&lt;br&gt;Dockable Panel&amp;nbsp; implements Dockable" style="swimlane;fontStyle=0;align=center;verticalAlign=top;childLayout=stackLayout;horizontal=1;startSize=55;horizontalStack=0;resizeParent=1;resizeParentMax=0;resizeLast=0;collapsible=0;marginBottom=0;html=1;whiteSpace=wrap;fillColor=#d80073;fontColor=#ffffff;strokeColor=#A50040;" vertex="1" parent="1">
          <mxGeometry x="1304" y="63" width="319" height="283" as="geometry" />
        </mxCell>
        <mxCell id="b5HULVO_B9-mvFHrGQGt-80" value="attributes" style="text;html=1;strokeColor=none;fillColor=none;align=center;verticalAlign=middle;spacingLeft=4;spacingRight=4;overflow=hidden;rotatable=0;points=[[0,0.5],[1,0.5]];portConstraint=eastwest;whiteSpace=wrap;" vertex="1" parent="b5HULVO_B9-mvFHrGQGt-79">
          <mxGeometry y="55" width="319" height="20" as="geometry" />
        </mxCell>
        <mxCell id="b5HULVO_B9-mvFHrGQGt-81" value="attribute1" style="text;html=1;strokeColor=none;fillColor=none;align=left;verticalAlign=middle;spacingLeft=4;spacingRight=4;overflow=hidden;rotatable=0;points=[[0,0.5],[1,0.5]];portConstraint=eastwest;whiteSpace=wrap;" vertex="1" parent="b5HULVO_B9-mvFHrGQGt-79">
          <mxGeometry y="75" width="319" height="20" as="geometry" />
        </mxCell>
        <mxCell id="b5HULVO_B9-mvFHrGQGt-82" value="inherited attribute2" style="text;html=1;strokeColor=none;fillColor=none;align=left;verticalAlign=middle;spacingLeft=4;spacingRight=4;overflow=hidden;rotatable=0;points=[[0,0.5],[1,0.5]];portConstraint=eastwest;fontColor=#808080;whiteSpace=wrap;" vertex="1" parent="b5HULVO_B9-mvFHrGQGt-79">
          <mxGeometry y="95" width="319" height="20" as="geometry" />
        </mxCell>
        <mxCell id="b5HULVO_B9-mvFHrGQGt-83" value="..." style="text;html=1;strokeColor=none;fillColor=none;align=left;verticalAlign=middle;spacingLeft=4;spacingRight=4;overflow=hidden;rotatable=0;points=[[0,0.5],[1,0.5]];portConstraint=eastwest;whiteSpace=wrap;" vertex="1" parent="b5HULVO_B9-mvFHrGQGt-79">
          <mxGeometry y="115" width="319" height="20" as="geometry" />
        </mxCell>
        <mxCell id="b5HULVO_B9-mvFHrGQGt-84" value="" style="line;strokeWidth=1;fillColor=none;align=left;verticalAlign=middle;spacingTop=-1;spacingLeft=3;spacingRight=3;rotatable=0;labelPosition=right;points=[];portConstraint=eastwest;" vertex="1" parent="b5HULVO_B9-mvFHrGQGt-79">
          <mxGeometry y="135" width="319" height="8" as="geometry" />
        </mxCell>
        <mxCell id="b5HULVO_B9-mvFHrGQGt-85" value="operations" style="text;html=1;strokeColor=none;fillColor=none;align=center;verticalAlign=middle;spacingLeft=4;spacingRight=4;overflow=hidden;rotatable=0;points=[[0,0.5],[1,0.5]];portConstraint=eastwest;whiteSpace=wrap;" vertex="1" parent="b5HULVO_B9-mvFHrGQGt-79">
          <mxGeometry y="143" width="319" height="20" as="geometry" />
        </mxCell>
        <mxCell id="b5HULVO_B9-mvFHrGQGt-86" value="void Detect_Floating()" style="text;html=1;strokeColor=none;fillColor=none;align=left;verticalAlign=middle;spacingLeft=4;spacingRight=4;overflow=hidden;rotatable=0;points=[[0,0.5],[1,0.5]];portConstraint=eastwest;whiteSpace=wrap;" vertex="1" parent="b5HULVO_B9-mvFHrGQGt-79">
          <mxGeometry y="163" width="319" height="20" as="geometry" />
        </mxCell>
        <mxCell id="b5HULVO_B9-mvFHrGQGt-87" value="void Detect_" style="text;html=1;strokeColor=none;fillColor=none;align=left;verticalAlign=middle;spacingLeft=4;spacingRight=4;overflow=hidden;rotatable=0;points=[[0,0.5],[1,0.5]];portConstraint=eastwest;whiteSpace=wrap;" vertex="1" parent="b5HULVO_B9-mvFHrGQGt-79">
          <mxGeometry y="183" width="319" height="20" as="geometry" />
        </mxCell>
        <mxCell id="b5HULVO_B9-mvFHrGQGt-88" value="void Plot_Dock_Indicator" style="text;html=1;strokeColor=none;fillColor=none;align=left;verticalAlign=middle;spacingLeft=4;spacingRight=4;overflow=hidden;rotatable=0;points=[[0,0.5],[1,0.5]];portConstraint=eastwest;whiteSpace=wrap;" vertex="1" parent="b5HULVO_B9-mvFHrGQGt-79">
          <mxGeometry y="203" width="319" height="20" as="geometry" />
        </mxCell>
        <mxCell id="b5HULVO_B9-mvFHrGQGt-89" value="void Persist_to_File" style="text;html=1;strokeColor=none;fillColor=none;align=left;verticalAlign=middle;spacingLeft=4;spacingRight=4;overflow=hidden;rotatable=0;points=[[0,0.5],[1,0.5]];portConstraint=eastwest;whiteSpace=wrap;" vertex="1" parent="b5HULVO_B9-mvFHrGQGt-79">
          <mxGeometry y="223" width="319" height="20" as="geometry" />
        </mxCell>
        <mxCell id="b5HULVO_B9-mvFHrGQGt-90" value="void Read_Persistence_from_File" style="text;html=1;strokeColor=none;fillColor=none;align=left;verticalAlign=middle;spacingLeft=4;spacingRight=4;overflow=hidden;rotatable=0;points=[[0,0.5],[1,0.5]];portConstraint=eastwest;whiteSpace=wrap;" vertex="1" parent="b5HULVO_B9-mvFHrGQGt-79">
          <mxGeometry y="243" width="319" height="20" as="geometry" />
        </mxCell>
        <mxCell id="b5HULVO_B9-mvFHrGQGt-91" value="void Set_Persistence_File_Location" style="text;html=1;strokeColor=none;fillColor=none;align=left;verticalAlign=middle;spacingLeft=4;spacingRight=4;overflow=hidden;rotatable=0;points=[[0,0.5],[1,0.5]];portConstraint=eastwest;whiteSpace=wrap;" vertex="1" parent="b5HULVO_B9-mvFHrGQGt-79">
          <mxGeometry y="263" width="319" height="20" as="geometry" />
        </mxCell>
        <mxCell id="b5HULVO_B9-mvFHrGQGt-105" style="edgeStyle=orthogonalEdgeStyle;rounded=0;orthogonalLoop=1;jettySize=auto;html=1;exitX=0.5;exitY=0;exitDx=0;exitDy=0;entryX=0.213;entryY=0.95;entryDx=0;entryDy=0;entryPerimeter=0;startArrow=blockThin;startFill=1;" edge="1" parent="1" source="b5HULVO_B9-mvFHrGQGt-92" target="b5HULVO_B9-mvFHrGQGt-78">
          <mxGeometry relative="1" as="geometry" />
        </mxCell>
        <mxCell id="b5HULVO_B9-mvFHrGQGt-92" value="&amp;lt;&amp;lt;Public &amp;gt;&amp;gt;&lt;br&gt;&lt;b&gt;Class&lt;/b&gt;&lt;br&gt;Dockable JTabbed Panel&amp;nbsp; implements Dockable" style="swimlane;fontStyle=0;align=center;verticalAlign=top;childLayout=stackLayout;horizontal=1;startSize=55;horizontalStack=0;resizeParent=1;resizeParentMax=0;resizeLast=0;collapsible=0;marginBottom=0;html=1;whiteSpace=wrap;fillColor=#d80073;fontColor=#ffffff;strokeColor=#A50040;" vertex="1" parent="1">
          <mxGeometry x="881" y="80" width="319" height="283" as="geometry" />
        </mxCell>
        <mxCell id="b5HULVO_B9-mvFHrGQGt-93" value="attributes" style="text;html=1;strokeColor=none;fillColor=none;align=center;verticalAlign=middle;spacingLeft=4;spacingRight=4;overflow=hidden;rotatable=0;points=[[0,0.5],[1,0.5]];portConstraint=eastwest;whiteSpace=wrap;" vertex="1" parent="b5HULVO_B9-mvFHrGQGt-92">
          <mxGeometry y="55" width="319" height="20" as="geometry" />
        </mxCell>
        <mxCell id="b5HULVO_B9-mvFHrGQGt-94" value="attribute1" style="text;html=1;strokeColor=none;fillColor=none;align=left;verticalAlign=middle;spacingLeft=4;spacingRight=4;overflow=hidden;rotatable=0;points=[[0,0.5],[1,0.5]];portConstraint=eastwest;whiteSpace=wrap;" vertex="1" parent="b5HULVO_B9-mvFHrGQGt-92">
          <mxGeometry y="75" width="319" height="20" as="geometry" />
        </mxCell>
        <mxCell id="b5HULVO_B9-mvFHrGQGt-95" value="inherited attribute2" style="text;html=1;strokeColor=none;fillColor=none;align=left;verticalAlign=middle;spacingLeft=4;spacingRight=4;overflow=hidden;rotatable=0;points=[[0,0.5],[1,0.5]];portConstraint=eastwest;fontColor=#808080;whiteSpace=wrap;" vertex="1" parent="b5HULVO_B9-mvFHrGQGt-92">
          <mxGeometry y="95" width="319" height="20" as="geometry" />
        </mxCell>
        <mxCell id="b5HULVO_B9-mvFHrGQGt-96" value="..." style="text;html=1;strokeColor=none;fillColor=none;align=left;verticalAlign=middle;spacingLeft=4;spacingRight=4;overflow=hidden;rotatable=0;points=[[0,0.5],[1,0.5]];portConstraint=eastwest;whiteSpace=wrap;" vertex="1" parent="b5HULVO_B9-mvFHrGQGt-92">
          <mxGeometry y="115" width="319" height="20" as="geometry" />
        </mxCell>
        <mxCell id="b5HULVO_B9-mvFHrGQGt-97" value="" style="line;strokeWidth=1;fillColor=none;align=left;verticalAlign=middle;spacingTop=-1;spacingLeft=3;spacingRight=3;rotatable=0;labelPosition=right;points=[];portConstraint=eastwest;" vertex="1" parent="b5HULVO_B9-mvFHrGQGt-92">
          <mxGeometry y="135" width="319" height="8" as="geometry" />
        </mxCell>
        <mxCell id="b5HULVO_B9-mvFHrGQGt-98" value="operations" style="text;html=1;strokeColor=none;fillColor=none;align=center;verticalAlign=middle;spacingLeft=4;spacingRight=4;overflow=hidden;rotatable=0;points=[[0,0.5],[1,0.5]];portConstraint=eastwest;whiteSpace=wrap;" vertex="1" parent="b5HULVO_B9-mvFHrGQGt-92">
          <mxGeometry y="143" width="319" height="20" as="geometry" />
        </mxCell>
        <mxCell id="b5HULVO_B9-mvFHrGQGt-99" value="void Detect_Floating()" style="text;html=1;strokeColor=none;fillColor=none;align=left;verticalAlign=middle;spacingLeft=4;spacingRight=4;overflow=hidden;rotatable=0;points=[[0,0.5],[1,0.5]];portConstraint=eastwest;whiteSpace=wrap;" vertex="1" parent="b5HULVO_B9-mvFHrGQGt-92">
          <mxGeometry y="163" width="319" height="20" as="geometry" />
        </mxCell>
        <mxCell id="b5HULVO_B9-mvFHrGQGt-100" value="void Detect_" style="text;html=1;strokeColor=none;fillColor=none;align=left;verticalAlign=middle;spacingLeft=4;spacingRight=4;overflow=hidden;rotatable=0;points=[[0,0.5],[1,0.5]];portConstraint=eastwest;whiteSpace=wrap;" vertex="1" parent="b5HULVO_B9-mvFHrGQGt-92">
          <mxGeometry y="183" width="319" height="20" as="geometry" />
        </mxCell>
        <mxCell id="b5HULVO_B9-mvFHrGQGt-101" value="void Plot_Dock_Indicator" style="text;html=1;strokeColor=none;fillColor=none;align=left;verticalAlign=middle;spacingLeft=4;spacingRight=4;overflow=hidden;rotatable=0;points=[[0,0.5],[1,0.5]];portConstraint=eastwest;whiteSpace=wrap;" vertex="1" parent="b5HULVO_B9-mvFHrGQGt-92">
          <mxGeometry y="203" width="319" height="20" as="geometry" />
        </mxCell>
        <mxCell id="b5HULVO_B9-mvFHrGQGt-102" value="void Persist_to_File" style="text;html=1;strokeColor=none;fillColor=none;align=left;verticalAlign=middle;spacingLeft=4;spacingRight=4;overflow=hidden;rotatable=0;points=[[0,0.5],[1,0.5]];portConstraint=eastwest;whiteSpace=wrap;" vertex="1" parent="b5HULVO_B9-mvFHrGQGt-92">
          <mxGeometry y="223" width="319" height="20" as="geometry" />
        </mxCell>
        <mxCell id="b5HULVO_B9-mvFHrGQGt-103" value="void Read_Persistence_from_File" style="text;html=1;strokeColor=none;fillColor=none;align=left;verticalAlign=middle;spacingLeft=4;spacingRight=4;overflow=hidden;rotatable=0;points=[[0,0.5],[1,0.5]];portConstraint=eastwest;whiteSpace=wrap;" vertex="1" parent="b5HULVO_B9-mvFHrGQGt-92">
          <mxGeometry y="243" width="319" height="20" as="geometry" />
        </mxCell>
        <mxCell id="b5HULVO_B9-mvFHrGQGt-104" value="void Set_Persistence_File_Location" style="text;html=1;strokeColor=none;fillColor=none;align=left;verticalAlign=middle;spacingLeft=4;spacingRight=4;overflow=hidden;rotatable=0;points=[[0,0.5],[1,0.5]];portConstraint=eastwest;whiteSpace=wrap;" vertex="1" parent="b5HULVO_B9-mvFHrGQGt-92">
          <mxGeometry y="263" width="319" height="20" as="geometry" />
        </mxCell>
        <mxCell id="b5HULVO_B9-mvFHrGQGt-108" value="public&lt;br&gt;&lt;b&gt;Class&lt;/b&gt;&lt;br&gt;&lt;span style=&quot;font-size: 17px;&quot;&gt;Docking Container&lt;/span&gt;" style="swimlane;fontStyle=0;align=center;verticalAlign=top;childLayout=stackLayout;horizontal=1;startSize=55;horizontalStack=0;resizeParent=1;resizeParentMax=0;resizeLast=0;collapsible=0;marginBottom=0;html=1;whiteSpace=wrap;fillColor=#60a917;fontColor=#ffffff;strokeColor=#2D7600;" vertex="1" parent="1">
          <mxGeometry x="180" y="479" width="359" height="243" as="geometry" />
        </mxCell>
        <mxCell id="b5HULVO_B9-mvFHrGQGt-109" value="attributes" style="text;html=1;strokeColor=none;fillColor=none;align=center;verticalAlign=middle;spacingLeft=4;spacingRight=4;overflow=hidden;rotatable=0;points=[[0,0.5],[1,0.5]];portConstraint=eastwest;whiteSpace=wrap;" vertex="1" parent="b5HULVO_B9-mvFHrGQGt-108">
          <mxGeometry y="55" width="359" height="20" as="geometry" />
        </mxCell>
        <mxCell id="b5HULVO_B9-mvFHrGQGt-110" value="bool&amp;nbsp; &amp;nbsp;isFloatable" style="text;html=1;strokeColor=none;fillColor=none;align=left;verticalAlign=middle;spacingLeft=4;spacingRight=4;overflow=hidden;rotatable=0;points=[[0,0.5],[1,0.5]];portConstraint=eastwest;whiteSpace=wrap;" vertex="1" parent="b5HULVO_B9-mvFHrGQGt-108">
          <mxGeometry y="75" width="359" height="20" as="geometry" />
        </mxCell>
        <mxCell id="b5HULVO_B9-mvFHrGQGt-111" value="int&amp;nbsp; &amp;nbsp;Maximum_Windows" style="text;html=1;strokeColor=none;fillColor=none;align=left;verticalAlign=middle;spacingLeft=4;spacingRight=4;overflow=hidden;rotatable=0;points=[[0,0.5],[1,0.5]];portConstraint=eastwest;whiteSpace=wrap;" vertex="1" parent="b5HULVO_B9-mvFHrGQGt-108">
          <mxGeometry y="95" width="359" height="20" as="geometry" />
        </mxCell>
        <mxCell id="b5HULVO_B9-mvFHrGQGt-112" value="attribute1" style="text;html=1;strokeColor=none;fillColor=none;align=left;verticalAlign=middle;spacingLeft=4;spacingRight=4;overflow=hidden;rotatable=0;points=[[0,0.5],[1,0.5]];portConstraint=eastwest;whiteSpace=wrap;" vertex="1" parent="b5HULVO_B9-mvFHrGQGt-108">
          <mxGeometry y="115" width="359" height="20" as="geometry" />
        </mxCell>
        <mxCell id="b5HULVO_B9-mvFHrGQGt-113" value="inherited attribute2" style="text;html=1;strokeColor=none;fillColor=none;align=left;verticalAlign=middle;spacingLeft=4;spacingRight=4;overflow=hidden;rotatable=0;points=[[0,0.5],[1,0.5]];portConstraint=eastwest;fontColor=#808080;whiteSpace=wrap;" vertex="1" parent="b5HULVO_B9-mvFHrGQGt-108">
          <mxGeometry y="135" width="359" height="20" as="geometry" />
        </mxCell>
        <mxCell id="b5HULVO_B9-mvFHrGQGt-114" value="..." style="text;html=1;strokeColor=none;fillColor=none;align=left;verticalAlign=middle;spacingLeft=4;spacingRight=4;overflow=hidden;rotatable=0;points=[[0,0.5],[1,0.5]];portConstraint=eastwest;whiteSpace=wrap;" vertex="1" parent="b5HULVO_B9-mvFHrGQGt-108">
          <mxGeometry y="155" width="359" height="20" as="geometry" />
        </mxCell>
        <mxCell id="b5HULVO_B9-mvFHrGQGt-115" value="" style="line;strokeWidth=1;fillColor=none;align=left;verticalAlign=middle;spacingTop=-1;spacingLeft=3;spacingRight=3;rotatable=0;labelPosition=right;points=[];portConstraint=eastwest;" vertex="1" parent="b5HULVO_B9-mvFHrGQGt-108">
          <mxGeometry y="175" width="359" height="8" as="geometry" />
        </mxCell>
        <mxCell id="b5HULVO_B9-mvFHrGQGt-116" value="operations" style="text;html=1;strokeColor=none;fillColor=none;align=center;verticalAlign=middle;spacingLeft=4;spacingRight=4;overflow=hidden;rotatable=0;points=[[0,0.5],[1,0.5]];portConstraint=eastwest;whiteSpace=wrap;" vertex="1" parent="b5HULVO_B9-mvFHrGQGt-108">
          <mxGeometry y="183" width="359" height="20" as="geometry" />
        </mxCell>
        <mxCell id="b5HULVO_B9-mvFHrGQGt-117" value="void SmartDocking()" style="text;html=1;strokeColor=none;fillColor=none;align=left;verticalAlign=middle;spacingLeft=4;spacingRight=4;overflow=hidden;rotatable=0;points=[[0,0.5],[1,0.5]];portConstraint=eastwest;whiteSpace=wrap;" vertex="1" parent="b5HULVO_B9-mvFHrGQGt-108">
          <mxGeometry y="203" width="359" height="20" as="geometry" />
        </mxCell>
        <mxCell id="b5HULVO_B9-mvFHrGQGt-118" value="operation1" style="text;html=1;strokeColor=none;fillColor=none;align=left;verticalAlign=middle;spacingLeft=4;spacingRight=4;overflow=hidden;rotatable=0;points=[[0,0.5],[1,0.5]];portConstraint=eastwest;whiteSpace=wrap;" vertex="1" parent="b5HULVO_B9-mvFHrGQGt-108">
          <mxGeometry y="223" width="359" height="20" as="geometry" />
        </mxCell>
        <mxCell id="b5HULVO_B9-mvFHrGQGt-120" value="public Class&amp;nbsp; &amp;nbsp;SMART_DOCKING" style="swimlane;fontStyle=1;align=center;verticalAlign=top;childLayout=stackLayout;horizontal=1;startSize=26;horizontalStack=0;resizeParent=1;resizeParentMax=0;resizeLast=0;collapsible=1;marginBottom=0;whiteSpace=wrap;html=1;fontFamily=Helvetica;fontSize=11;fontColor=#000000;fillColor=#fa6800;strokeColor=#C73500;" vertex="1" parent="1">
          <mxGeometry x="-633" y="230" width="261" height="138" as="geometry" />
        </mxCell>
        <mxCell id="b5HULVO_B9-mvFHrGQGt-121" value="bool&lt;span style=&quot;white-space: pre;&quot;&gt;&#x9;&lt;/span&gt;&lt;span style=&quot;white-space: pre;&quot;&gt;&#x9;&lt;/span&gt;isFloatable" style="text;strokeColor=none;fillColor=none;align=left;verticalAlign=top;spacingLeft=4;spacingRight=4;overflow=hidden;rotatable=0;points=[[0,0.5],[1,0.5]];portConstraint=eastwest;whiteSpace=wrap;html=1;fontSize=11;fontFamily=Helvetica;fontColor=default;" vertex="1" parent="b5HULVO_B9-mvFHrGQGt-120">
          <mxGeometry y="26" width="261" height="26" as="geometry" />
        </mxCell>
        <mxCell id="b5HULVO_B9-mvFHrGQGt-130" value="int&amp;nbsp;&lt;span style=&quot;white-space: pre;&quot;&gt;&#x9;&lt;/span&gt;&lt;span style=&quot;white-space: pre;&quot;&gt;&#x9;&lt;/span&gt;Maximum_Windows" style="text;strokeColor=none;fillColor=none;align=left;verticalAlign=top;spacingLeft=4;spacingRight=4;overflow=hidden;rotatable=0;points=[[0,0.5],[1,0.5]];portConstraint=eastwest;whiteSpace=wrap;html=1;fontSize=11;fontFamily=Helvetica;fontColor=default;" vertex="1" parent="b5HULVO_B9-mvFHrGQGt-120">
          <mxGeometry y="52" width="261" height="26" as="geometry" />
        </mxCell>
        <mxCell id="b5HULVO_B9-mvFHrGQGt-122" value="" style="line;strokeWidth=1;fillColor=none;align=left;verticalAlign=middle;spacingTop=-1;spacingLeft=3;spacingRight=3;rotatable=0;labelPosition=right;points=[];portConstraint=eastwest;strokeColor=inherit;fontFamily=Helvetica;fontSize=11;fontColor=default;" vertex="1" parent="b5HULVO_B9-mvFHrGQGt-120">
          <mxGeometry y="78" width="261" height="8" as="geometry" />
        </mxCell>
        <mxCell id="b5HULVO_B9-mvFHrGQGt-123" value="void&lt;span style=&quot;white-space: pre;&quot;&gt;&#x9;&lt;/span&gt;&lt;span style=&quot;white-space: pre;&quot;&gt;&#x9;&lt;/span&gt;SmartDocking()" style="text;strokeColor=none;fillColor=none;align=left;verticalAlign=top;spacingLeft=4;spacingRight=4;overflow=hidden;rotatable=0;points=[[0,0.5],[1,0.5]];portConstraint=eastwest;whiteSpace=wrap;html=1;fontSize=11;fontFamily=Helvetica;fontColor=default;" vertex="1" parent="b5HULVO_B9-mvFHrGQGt-120">
          <mxGeometry y="86" width="261" height="26" as="geometry" />
        </mxCell>
        <mxCell id="b5HULVO_B9-mvFHrGQGt-124" value="+ method(type): type" style="text;strokeColor=none;fillColor=none;align=left;verticalAlign=top;spacingLeft=4;spacingRight=4;overflow=hidden;rotatable=0;points=[[0,0.5],[1,0.5]];portConstraint=eastwest;whiteSpace=wrap;html=1;fontSize=11;fontFamily=Helvetica;fontColor=default;" vertex="1" parent="b5HULVO_B9-mvFHrGQGt-120">
          <mxGeometry y="112" width="261" height="26" as="geometry" />
        </mxCell>
        <mxCell id="b5HULVO_B9-mvFHrGQGt-126" value="public Class Docking_Container" style="swimlane;fontStyle=1;align=center;verticalAlign=top;childLayout=stackLayout;horizontal=1;startSize=26;horizontalStack=0;resizeParent=1;resizeParentMax=0;resizeLast=0;collapsible=1;marginBottom=0;whiteSpace=wrap;html=1;fontFamily=Helvetica;fontSize=11;fontColor=#ffffff;fillColor=#60a917;strokeColor=#2D7600;" vertex="1" parent="1">
          <mxGeometry x="-258" y="470" width="278" height="86" as="geometry" />
        </mxCell>
        <mxCell id="b5HULVO_B9-mvFHrGQGt-127" value="+&amp;nbsp;" style="text;strokeColor=none;fillColor=none;align=left;verticalAlign=top;spacingLeft=4;spacingRight=4;overflow=hidden;rotatable=0;points=[[0,0.5],[1,0.5]];portConstraint=eastwest;whiteSpace=wrap;html=1;fontSize=11;fontFamily=Helvetica;fontColor=default;" vertex="1" parent="b5HULVO_B9-mvFHrGQGt-126">
          <mxGeometry y="26" width="278" height="26" as="geometry" />
        </mxCell>
        <mxCell id="b5HULVO_B9-mvFHrGQGt-128" value="" style="line;strokeWidth=1;fillColor=none;align=left;verticalAlign=middle;spacingTop=-1;spacingLeft=3;spacingRight=3;rotatable=0;labelPosition=right;points=[];portConstraint=eastwest;strokeColor=inherit;fontFamily=Helvetica;fontSize=11;fontColor=default;" vertex="1" parent="b5HULVO_B9-mvFHrGQGt-126">
          <mxGeometry y="52" width="278" height="8" as="geometry" />
        </mxCell>
        <mxCell id="b5HULVO_B9-mvFHrGQGt-129" value="+ method(type): type" style="text;strokeColor=none;fillColor=none;align=left;verticalAlign=top;spacingLeft=4;spacingRight=4;overflow=hidden;rotatable=0;points=[[0,0.5],[1,0.5]];portConstraint=eastwest;whiteSpace=wrap;html=1;fontSize=11;fontFamily=Helvetica;fontColor=default;" vertex="1" parent="b5HULVO_B9-mvFHrGQGt-126">
          <mxGeometry y="60" width="278" height="26" as="geometry" />
        </mxCell>
        <mxCell id="b5HULVO_B9-mvFHrGQGt-132" value="public Abstract Class Dockable" style="swimlane;fontStyle=1;align=center;verticalAlign=top;childLayout=stackLayout;horizontal=1;startSize=26;horizontalStack=0;resizeParent=1;resizeParentMax=0;resizeLast=0;collapsible=1;marginBottom=0;whiteSpace=wrap;html=1;fontFamily=Helvetica;fontSize=11;fontColor=#ffffff;fillColor=#d80073;strokeColor=#A50040;" vertex="1" parent="1">
          <mxGeometry x="-354" y="656" width="374" height="112" as="geometry" />
        </mxCell>
        <mxCell id="b5HULVO_B9-mvFHrGQGt-133" value="+ bool&lt;span style=&quot;white-space: pre;&quot;&gt;&#x9;&lt;/span&gt;isFloatable = &quot;true&quot;&lt;span style=&quot;white-space: pre;&quot;&gt;&#x9;&lt;/span&gt;&lt;span style=&quot;white-space: pre;&quot;&gt;&#x9;&lt;/span&gt;&lt;span style=&quot;white-space: pre;&quot;&gt;&#x9;&lt;/span&gt;&lt;span style=&quot;white-space: pre;&quot;&gt;&#x9;&lt;/span&gt;//Floatable by Default&amp;nbsp;" style="text;strokeColor=none;fillColor=none;align=left;verticalAlign=top;spacingLeft=4;spacingRight=4;overflow=hidden;rotatable=0;points=[[0,0.5],[1,0.5]];portConstraint=eastwest;whiteSpace=wrap;html=1;fontSize=11;fontFamily=Helvetica;fontColor=default;" vertex="1" parent="b5HULVO_B9-mvFHrGQGt-132">
          <mxGeometry y="26" width="374" height="26" as="geometry" />
        </mxCell>
        <mxCell id="b5HULVO_B9-mvFHrGQGt-137" value="+ int&lt;span style=&quot;white-space: pre;&quot;&gt;&#x9;&lt;/span&gt;&lt;span style=&quot;white-space: pre;&quot;&gt;&#x9;&lt;/span&gt;Max_Windows&lt;span style=&quot;white-space: pre;&quot;&gt;&#x9;&lt;/span&gt;= 20&lt;span style=&quot;white-space: pre;&quot;&gt;&#x9;&lt;/span&gt;&lt;span style=&quot;white-space: pre;&quot;&gt;&#x9;&lt;/span&gt;&lt;span style=&quot;white-space: pre;&quot;&gt;&#x9;&lt;span style=&quot;white-space: pre;&quot;&gt;&#x9;&lt;/span&gt;&lt;/span&gt;//Default 20 windows max" style="text;strokeColor=none;fillColor=none;align=left;verticalAlign=top;spacingLeft=4;spacingRight=4;overflow=hidden;rotatable=0;points=[[0,0.5],[1,0.5]];portConstraint=eastwest;whiteSpace=wrap;html=1;fontSize=11;fontFamily=Helvetica;fontColor=default;" vertex="1" parent="b5HULVO_B9-mvFHrGQGt-132">
          <mxGeometry y="52" width="374" height="26" as="geometry" />
        </mxCell>
        <mxCell id="b5HULVO_B9-mvFHrGQGt-134" value="" style="line;strokeWidth=1;fillColor=none;align=left;verticalAlign=middle;spacingTop=-1;spacingLeft=3;spacingRight=3;rotatable=0;labelPosition=right;points=[];portConstraint=eastwest;strokeColor=inherit;fontFamily=Helvetica;fontSize=11;fontColor=default;" vertex="1" parent="b5HULVO_B9-mvFHrGQGt-132">
          <mxGeometry y="78" width="374" height="8" as="geometry" />
        </mxCell>
        <mxCell id="b5HULVO_B9-mvFHrGQGt-135" value="+ method(type): type" style="text;strokeColor=none;fillColor=none;align=left;verticalAlign=top;spacingLeft=4;spacingRight=4;overflow=hidden;rotatable=0;points=[[0,0.5],[1,0.5]];portConstraint=eastwest;whiteSpace=wrap;html=1;fontSize=11;fontFamily=Helvetica;fontColor=default;" vertex="1" parent="b5HULVO_B9-mvFHrGQGt-132">
          <mxGeometry y="86" width="374" height="26" as="geometry" />
        </mxCell>
        <mxCell id="b5HULVO_B9-mvFHrGQGt-140" value="public Interface Dockable" style="swimlane;fontStyle=1;align=center;verticalAlign=top;childLayout=stackLayout;horizontal=1;startSize=26;horizontalStack=0;resizeParent=1;resizeParentMax=0;resizeLast=0;collapsible=1;marginBottom=0;whiteSpace=wrap;html=1;fontFamily=Helvetica;fontSize=11;fontColor=#ffffff;fillColor=#d80073;strokeColor=#A50040;" vertex="1" parent="1">
          <mxGeometry x="419" y="-265" width="207" height="164" as="geometry" />
        </mxCell>
        <mxCell id="b5HULVO_B9-mvFHrGQGt-141" value="+ field: type" style="text;strokeColor=none;fillColor=none;align=left;verticalAlign=top;spacingLeft=4;spacingRight=4;overflow=hidden;rotatable=0;points=[[0,0.5],[1,0.5]];portConstraint=eastwest;whiteSpace=wrap;html=1;fontSize=11;fontFamily=Helvetica;fontColor=default;" vertex="1" parent="b5HULVO_B9-mvFHrGQGt-140">
          <mxGeometry y="26" width="207" height="26" as="geometry" />
        </mxCell>
        <mxCell id="b5HULVO_B9-mvFHrGQGt-142" value="" style="line;strokeWidth=1;fillColor=none;align=left;verticalAlign=middle;spacingTop=-1;spacingLeft=3;spacingRight=3;rotatable=0;labelPosition=right;points=[];portConstraint=eastwest;strokeColor=inherit;fontFamily=Helvetica;fontSize=11;fontColor=default;" vertex="1" parent="b5HULVO_B9-mvFHrGQGt-140">
          <mxGeometry y="52" width="207" height="8" as="geometry" />
        </mxCell>
        <mxCell id="b5HULVO_B9-mvFHrGQGt-143" value="+ void Detect_Floating()" style="text;strokeColor=none;fillColor=none;align=left;verticalAlign=top;spacingLeft=4;spacingRight=4;overflow=hidden;rotatable=0;points=[[0,0.5],[1,0.5]];portConstraint=eastwest;whiteSpace=wrap;html=1;fontSize=11;fontFamily=Helvetica;fontColor=default;" vertex="1" parent="b5HULVO_B9-mvFHrGQGt-140">
          <mxGeometry y="60" width="207" height="26" as="geometry" />
        </mxCell>
        <mxCell id="b5HULVO_B9-mvFHrGQGt-144" value="+ void Detect_Enter_Dockable()" style="text;strokeColor=none;fillColor=none;align=left;verticalAlign=top;spacingLeft=4;spacingRight=4;overflow=hidden;rotatable=0;points=[[0,0.5],[1,0.5]];portConstraint=eastwest;whiteSpace=wrap;html=1;fontSize=11;fontFamily=Helvetica;fontColor=default;" vertex="1" parent="b5HULVO_B9-mvFHrGQGt-140">
          <mxGeometry y="86" width="207" height="26" as="geometry" />
        </mxCell>
        <mxCell id="b5HULVO_B9-mvFHrGQGt-145" value="+ void Plot_Dock_Indicator" style="text;strokeColor=none;fillColor=none;align=left;verticalAlign=top;spacingLeft=4;spacingRight=4;overflow=hidden;rotatable=0;points=[[0,0.5],[1,0.5]];portConstraint=eastwest;whiteSpace=wrap;html=1;fontSize=11;fontFamily=Helvetica;fontColor=default;" vertex="1" parent="b5HULVO_B9-mvFHrGQGt-140">
          <mxGeometry y="112" width="207" height="26" as="geometry" />
        </mxCell>
        <mxCell id="b5HULVO_B9-mvFHrGQGt-146" value="+ void Detect_Enter_Dockable()" style="text;strokeColor=none;fillColor=none;align=left;verticalAlign=top;spacingLeft=4;spacingRight=4;overflow=hidden;rotatable=0;points=[[0,0.5],[1,0.5]];portConstraint=eastwest;whiteSpace=wrap;html=1;fontSize=11;fontFamily=Helvetica;fontColor=default;" vertex="1" parent="b5HULVO_B9-mvFHrGQGt-140">
          <mxGeometry y="138" width="207" height="26" as="geometry" />
        </mxCell>
      </root>
    </mxGraphModel>
  </diagram>
</mxfile>
